<mxGraphModel dx="1163" dy="761" grid="1" gridSize="10" guides="1" tooltips="1" connect="1" arrows="1" fold="1" page="1" pageScale="1" pageWidth="827" pageHeight="1169" math="0" shadow="0"><root><mxCell id="0"/><mxCell id="1" parent="0"/><mxCell id="IK2XsmD8G0VPWLhHtN0z-35" value="Добавление Учеников" style="html=1;verticalAlign=bottom;endArrow=block;curved=0;rounded=0;" parent="1" source="IK2XsmD8G0VPWLhHtN0z-33" target="IK2XsmD8G0VPWLhHtN0z-9" edge="1"><mxGeometry width="80" relative="1" as="geometry"><mxPoint x="110" y="320" as="sourcePoint"/><mxPoint x="460" y="320" as="targetPoint"/><Array as="points"><mxPoint x="370" y="380"/></Array></mxGeometry></mxCell><mxCell id="IK2XsmD8G0VPWLhHtN0z-1" value="Администратор" style="shape=umlActor;verticalLabelPosition=bottom;verticalAlign=top;html=1;outlineConnect=0;" parent="1" vertex="1"><mxGeometry x="80" y="20" width="30" height="60" as="geometry"/></mxCell><mxCell id="IK2XsmD8G0VPWLhHtN0z-2" value="Администратор" style="shape=umlActor;verticalLabelPosition=bottom;verticalAlign=top;html=1;outlineConnect=0;" parent="1" vertex="1"><mxGeometry x="80" y="650" width="30" height="60" as="geometry"/></mxCell><mxCell id="IK2XsmD8G0VPWLhHtN0z-3" value="" style="endArrow=none;dashed=1;html=1;rounded=0;exitX=0.5;exitY=0;exitDx=0;exitDy=0;exitPerimeter=0;" parent="1" source="IK2XsmD8G0VPWLhHtN0z-11" target="IK2XsmD8G0VPWLhHtN0z-1" edge="1"><mxGeometry width="50" height="50" relative="1" as="geometry"><mxPoint x="310" y="120" as="sourcePoint"/><mxPoint x="360" y="70" as="targetPoint"/><Array as="points"/></mxGeometry></mxCell><mxCell id="IK2XsmD8G0VPWLhHtN0z-4" value="Система" style="rounded=0;whiteSpace=wrap;html=1;" parent="1" vertex="1"><mxGeometry x="450" y="60" width="90" height="40" as="geometry"/></mxCell><mxCell id="IK2XsmD8G0VPWLhHtN0z-5" value="Система" style="rounded=0;whiteSpace=wrap;html=1;" parent="1" vertex="1"><mxGeometry x="450" y="645" width="90" height="40" as="geometry"/></mxCell><mxCell id="IK2XsmD8G0VPWLhHtN0z-6" value="" style="endArrow=none;dashed=1;html=1;rounded=0;entryX=0.5;entryY=1;entryDx=0;entryDy=0;exitX=0.5;exitY=0;exitDx=0;exitDy=0;" parent="1" source="IK2XsmD8G0VPWLhHtN0z-9" target="IK2XsmD8G0VPWLhHtN0z-4" edge="1"><mxGeometry width="50" height="50" relative="1" as="geometry"><mxPoint x="450" y="240" as="sourcePoint"/><mxPoint x="500" y="190" as="targetPoint"/></mxGeometry></mxCell><mxCell id="IK2XsmD8G0VPWLhHtN0z-8" value="" style="endArrow=none;dashed=1;html=1;rounded=0;entryX=0.5;entryY=1;entryDx=0;entryDy=0;exitX=0.5;exitY=0;exitDx=0;exitDy=0;" parent="1" source="IK2XsmD8G0VPWLhHtN0z-5" target="IK2XsmD8G0VPWLhHtN0z-9" edge="1"><mxGeometry width="50" height="50" relative="1" as="geometry"><mxPoint x="495" y="460" as="sourcePoint"/><mxPoint x="495" y="100" as="targetPoint"/></mxGeometry></mxCell><mxCell id="IK2XsmD8G0VPWLhHtN0z-9" value="" style="html=1;points=[[0,0,0,0,5],[0,1,0,0,-5],[1,0,0,0,5],[1,1,0,0,-5]];perimeter=orthogonalPerimeter;outlineConnect=0;targetShapes=umlLifeline;portConstraint=eastwest;newEdgeStyle={&quot;curved&quot;:0,&quot;rounded&quot;:0};" parent="1" vertex="1"><mxGeometry x="490" y="140" width="10" height="490" as="geometry"/></mxCell><mxCell id="IK2XsmD8G0VPWLhHtN0z-10" value="" style="endArrow=none;dashed=1;html=1;rounded=0;exitX=0.5;exitY=0;exitDx=0;exitDy=0;exitPerimeter=0;" parent="1" source="IK2XsmD8G0VPWLhHtN0z-2" target="IK2XsmD8G0VPWLhHtN0z-11" edge="1"><mxGeometry width="50" height="50" relative="1" as="geometry"><mxPoint x="95" y="440" as="sourcePoint"/><mxPoint x="95" y="80" as="targetPoint"/><Array as="points"/></mxGeometry></mxCell><mxCell id="IK2XsmD8G0VPWLhHtN0z-11" value="" style="html=1;points=[[0,0,0,0,5],[0,1,0,0,-5],[1,0,0,0,5],[1,1,0,0,-5]];perimeter=orthogonalPerimeter;outlineConnect=0;targetShapes=umlLifeline;portConstraint=eastwest;newEdgeStyle={&quot;curved&quot;:0,&quot;rounded&quot;:0};" parent="1" vertex="1"><mxGeometry x="90" y="120" width="10" height="510" as="geometry"/></mxCell><mxCell id="IK2XsmD8G0VPWLhHtN0z-14" value="БД Пользователи" style="shape=cylinder3;whiteSpace=wrap;html=1;boundedLbl=1;backgroundOutline=1;size=15;" parent="1" vertex="1"><mxGeometry x="690" y="650" width="60" height="80" as="geometry"/></mxCell><mxCell id="IK2XsmD8G0VPWLhHtN0z-15" value="БД Пользователи" style="shape=cylinder3;whiteSpace=wrap;html=1;boundedLbl=1;backgroundOutline=1;size=15;" parent="1" vertex="1"><mxGeometry x="690" y="40" width="60" height="80" as="geometry"/></mxCell><mxCell id="IK2XsmD8G0VPWLhHtN0z-16" value="" style="endArrow=none;dashed=1;html=1;rounded=0;entryX=0.5;entryY=1;entryDx=0;entryDy=0;entryPerimeter=0;exitX=0.5;exitY=0;exitDx=0;exitDy=0;exitPerimeter=0;" parent="1" source="IK2XsmD8G0VPWLhHtN0z-18" target="IK2XsmD8G0VPWLhHtN0z-15" edge="1"><mxGeometry width="50" height="50" relative="1" as="geometry"><mxPoint x="490" y="340" as="sourcePoint"/><mxPoint x="540" y="290" as="targetPoint"/></mxGeometry></mxCell><mxCell id="IK2XsmD8G0VPWLhHtN0z-17" value="" style="endArrow=none;dashed=1;html=1;rounded=0;entryX=0.5;entryY=1;entryDx=0;entryDy=0;entryPerimeter=0;exitX=0.5;exitY=0;exitDx=0;exitDy=0;exitPerimeter=0;" parent="1" source="IK2XsmD8G0VPWLhHtN0z-14" target="IK2XsmD8G0VPWLhHtN0z-18" edge="1"><mxGeometry width="50" height="50" relative="1" as="geometry"><mxPoint x="720" y="460" as="sourcePoint"/><mxPoint x="720" y="120" as="targetPoint"/></mxGeometry></mxCell><mxCell id="IK2XsmD8G0VPWLhHtN0z-18" value="" style="html=1;points=[[0,0,0,0,5],[0,1,0,0,-5],[1,0,0,0,5],[1,1,0,0,-5]];perimeter=orthogonalPerimeter;outlineConnect=0;targetShapes=umlLifeline;portConstraint=eastwest;newEdgeStyle={&quot;curved&quot;:0,&quot;rounded&quot;:0};" parent="1" vertex="1"><mxGeometry x="715" y="140" width="10" height="490" as="geometry"/></mxCell><mxCell id="IK2XsmD8G0VPWLhHtN0z-19" value="Создание Нового Класса" style="html=1;verticalAlign=bottom;endArrow=block;curved=0;rounded=0;" parent="1" target="IK2XsmD8G0VPWLhHtN0z-28" edge="1"><mxGeometry x="0.0057" width="80" relative="1" as="geometry"><mxPoint x="500" y="330" as="sourcePoint"/><mxPoint x="730" y="330" as="targetPoint"/><Array as="points"/><mxPoint as="offset"/></mxGeometry></mxCell><mxCell id="IK2XsmD8G0VPWLhHtN0z-20" value="Подтверждение создания" style="html=1;verticalAlign=bottom;endArrow=open;dashed=1;endSize=8;curved=0;rounded=0;" parent="1" edge="1"><mxGeometry relative="1" as="geometry"><mxPoint x="500" y="360" as="targetPoint"/><mxPoint x="835" y="360.0000000000002" as="sourcePoint"/><Array as="points"/></mxGeometry></mxCell><mxCell id="IK2XsmD8G0VPWLhHtN0z-24" value="БД Учебный процесс" style="shape=cylinder3;whiteSpace=wrap;html=1;boundedLbl=1;backgroundOutline=1;size=15;" parent="1" vertex="1"><mxGeometry x="810" y="650" width="60" height="80" as="geometry"/></mxCell><mxCell id="IK2XsmD8G0VPWLhHtN0z-25" value="БД Учебный процесс" style="shape=cylinder3;whiteSpace=wrap;html=1;boundedLbl=1;backgroundOutline=1;size=15;" parent="1" vertex="1"><mxGeometry x="810" y="40" width="60" height="80" as="geometry"/></mxCell><mxCell id="IK2XsmD8G0VPWLhHtN0z-26" value="" style="endArrow=none;dashed=1;html=1;rounded=0;entryX=0.5;entryY=1;entryDx=0;entryDy=0;entryPerimeter=0;exitX=0.5;exitY=0;exitDx=0;exitDy=0;exitPerimeter=0;" parent="1" source="IK2XsmD8G0VPWLhHtN0z-28" target="IK2XsmD8G0VPWLhHtN0z-25" edge="1"><mxGeometry width="50" height="50" relative="1" as="geometry"><mxPoint x="610" y="340" as="sourcePoint"/><mxPoint x="660" y="290" as="targetPoint"/></mxGeometry></mxCell><mxCell id="IK2XsmD8G0VPWLhHtN0z-27" value="" style="endArrow=none;dashed=1;html=1;rounded=0;entryX=0.5;entryY=1;entryDx=0;entryDy=0;entryPerimeter=0;exitX=0.5;exitY=0;exitDx=0;exitDy=0;exitPerimeter=0;" parent="1" source="IK2XsmD8G0VPWLhHtN0z-24" target="IK2XsmD8G0VPWLhHtN0z-28" edge="1"><mxGeometry width="50" height="50" relative="1" as="geometry"><mxPoint x="840" y="460" as="sourcePoint"/><mxPoint x="840" y="120" as="targetPoint"/></mxGeometry></mxCell><mxCell id="IK2XsmD8G0VPWLhHtN0z-28" value="" style="html=1;points=[[0,0,0,0,5],[0,1,0,0,-5],[1,0,0,0,5],[1,1,0,0,-5]];perimeter=orthogonalPerimeter;outlineConnect=0;targetShapes=umlLifeline;portConstraint=eastwest;newEdgeStyle={&quot;curved&quot;:0,&quot;rounded&quot;:0};" parent="1" vertex="1"><mxGeometry x="835" y="140" width="10" height="490" as="geometry"/></mxCell><mxCell id="IK2XsmD8G0VPWLhHtN0z-29" value="Учитель" style="shape=umlActor;verticalLabelPosition=bottom;verticalAlign=top;html=1;outlineConnect=0;" parent="1" vertex="1"><mxGeometry x="330" y="40" width="30" height="60" as="geometry"/></mxCell><mxCell id="IK2XsmD8G0VPWLhHtN0z-30" value="Учитель" style="shape=umlActor;verticalLabelPosition=bottom;verticalAlign=top;html=1;outlineConnect=0;" parent="1" vertex="1"><mxGeometry x="330" y="650" width="30" height="60" as="geometry"/></mxCell><mxCell id="IK2XsmD8G0VPWLhHtN0z-31" value="" style="endArrow=none;dashed=1;html=1;rounded=0;exitX=0.5;exitY=0;exitDx=0;exitDy=0;exitPerimeter=0;" parent="1" source="IK2XsmD8G0VPWLhHtN0z-33" target="IK2XsmD8G0VPWLhHtN0z-29" edge="1"><mxGeometry width="50" height="50" relative="1" as="geometry"><mxPoint x="560" y="140" as="sourcePoint"/><mxPoint x="610" y="90" as="targetPoint"/><Array as="points"/></mxGeometry></mxCell><mxCell id="IK2XsmD8G0VPWLhHtN0z-32" value="" style="endArrow=none;dashed=1;html=1;rounded=0;exitX=0.5;exitY=0;exitDx=0;exitDy=0;exitPerimeter=0;" parent="1" source="IK2XsmD8G0VPWLhHtN0z-30" target="IK2XsmD8G0VPWLhHtN0z-33" edge="1"><mxGeometry width="50" height="50" relative="1" as="geometry"><mxPoint x="345" y="460" as="sourcePoint"/><mxPoint x="345" y="100" as="targetPoint"/><Array as="points"/></mxGeometry></mxCell><mxCell id="IK2XsmD8G0VPWLhHtN0z-33" value="" style="html=1;points=[[0,0,0,0,5],[0,1,0,0,-5],[1,0,0,0,5],[1,1,0,0,-5]];perimeter=orthogonalPerimeter;outlineConnect=0;targetShapes=umlLifeline;portConstraint=eastwest;newEdgeStyle={&quot;curved&quot;:0,&quot;rounded&quot;:0};" parent="1" vertex="1"><mxGeometry x="340" y="140" width="10" height="490" as="geometry"/></mxCell><mxCell id="IK2XsmD8G0VPWLhHtN0z-34" value="Форма для ввода данных" style="html=1;verticalAlign=bottom;endArrow=block;curved=0;rounded=0;" parent="1" source="IK2XsmD8G0VPWLhHtN0z-9" edge="1"><mxGeometry width="80" relative="1" as="geometry"><mxPoint x="430" y="279.5" as="sourcePoint"/><mxPoint x="100" y="279.5" as="targetPoint"/><Array as="points"><mxPoint x="180" y="279.5"/></Array></mxGeometry></mxCell><mxCell id="IK2XsmD8G0VPWLhHtN0z-13" value="Создание нового Класса" style="html=1;verticalAlign=bottom;endArrow=block;curved=0;rounded=0;" parent="1" target="IK2XsmD8G0VPWLhHtN0z-9" edge="1"><mxGeometry width="80" relative="1" as="geometry"><mxPoint x="100" y="250" as="sourcePoint"/><mxPoint x="350" y="250" as="targetPoint"/><Array as="points"><mxPoint x="170" y="250"/></Array></mxGeometry></mxCell><mxCell id="IK2XsmD8G0VPWLhHtN0z-12" value="Успешная Авторизация" style="html=1;verticalAlign=bottom;endArrow=open;dashed=1;endSize=8;curved=0;rounded=0;" parent="1" source="IK2XsmD8G0VPWLhHtN0z-9" edge="1"><mxGeometry relative="1" as="geometry"><mxPoint x="100" y="210" as="targetPoint"/><mxPoint x="430" y="210" as="sourcePoint"/><Array as="points"><mxPoint x="290" y="210"/></Array></mxGeometry></mxCell><mxCell id="IK2XsmD8G0VPWLhHtN0z-23" value="Запрос Прав пользователя" style="html=1;verticalAlign=bottom;endArrow=block;curved=0;rounded=0;" parent="1" source="IK2XsmD8G0VPWLhHtN0z-9" edge="1"><mxGeometry width="80" relative="1" as="geometry"><mxPoint x="350" y="180" as="sourcePoint"/><mxPoint x="100" y="180" as="targetPoint"/><Array as="points"><mxPoint x="180" y="180"/></Array></mxGeometry></mxCell><mxCell id="IK2XsmD8G0VPWLhHtN0z-7" value="Авторизация" style="html=1;verticalAlign=bottom;endArrow=block;curved=0;rounded=0;" parent="1" source="IK2XsmD8G0VPWLhHtN0z-11" target="IK2XsmD8G0VPWLhHtN0z-9" edge="1"><mxGeometry width="80" relative="1" as="geometry"><mxPoint x="90" y="160" as="sourcePoint"/><mxPoint x="200" y="220" as="targetPoint"/><Array as="points"><mxPoint x="170" y="150"/></Array></mxGeometry></mxCell><mxCell id="IK2XsmD8G0VPWLhHtN0z-22" value="Ввод данных о классе" style="html=1;verticalAlign=bottom;endArrow=block;curved=0;rounded=0;" parent="1" target="IK2XsmD8G0VPWLhHtN0z-9" edge="1"><mxGeometry width="80" relative="1" as="geometry"><mxPoint x="100" y="310" as="sourcePoint"/><mxPoint x="430" y="310" as="targetPoint"/><Array as="points"><mxPoint x="170" y="310"/></Array></mxGeometry></mxCell><mxCell id="IK2XsmD8G0VPWLhHtN0z-36" value="Получение списка учеников" style="html=1;verticalAlign=bottom;endArrow=block;curved=0;rounded=0;" parent="1" target="IK2XsmD8G0VPWLhHtN0z-18" edge="1"><mxGeometry width="80" relative="1" as="geometry"><mxPoint x="500" y="400" as="sourcePoint"/><mxPoint x="640" y="400" as="targetPoint"/><Array as="points"><mxPoint x="520" y="400"/></Array></mxGeometry></mxCell><mxCell id="IK2XsmD8G0VPWLhHtN0z-37" value="Список Учеников" style="html=1;verticalAlign=bottom;endArrow=open;dashed=1;endSize=8;curved=0;rounded=0;" parent="1" edge="1"><mxGeometry relative="1" as="geometry"><mxPoint x="500" y="430" as="targetPoint"/><mxPoint x="715" y="430" as="sourcePoint"/><Array as="points"/></mxGeometry></mxCell><mxCell id="IK2XsmD8G0VPWLhHtN0z-38" value="Получение списка&lt;div&gt;&amp;nbsp;Учеников&lt;/div&gt;" style="html=1;verticalAlign=bottom;endArrow=block;curved=0;rounded=0;" parent="1" edge="1"><mxGeometry width="80" relative="1" as="geometry"><mxPoint x="490" y="459.9999999999998" as="sourcePoint"/><mxPoint x="350" y="460" as="targetPoint"/><Array as="points"><mxPoint x="430" y="460"/></Array></mxGeometry></mxCell><mxCell id="IK2XsmD8G0VPWLhHtN0z-39" value="Выбор учеников&lt;div&gt;для добавления&lt;/div&gt;" style="html=1;verticalAlign=bottom;endArrow=block;curved=0;rounded=0;" parent="1" edge="1"><mxGeometry width="80" relative="1" as="geometry"><mxPoint x="350" y="500" as="sourcePoint"/><mxPoint x="490" y="500" as="targetPoint"/><Array as="points"><mxPoint x="370" y="500"/></Array></mxGeometry></mxCell><mxCell id="IK2XsmD8G0VPWLhHtN0z-40" value="Обновление Информации о классе с учениками" style="html=1;verticalAlign=bottom;endArrow=block;curved=0;rounded=0;" parent="1" edge="1"><mxGeometry x="0.0057" width="80" relative="1" as="geometry"><mxPoint x="500" y="540" as="sourcePoint"/><mxPoint x="835" y="540" as="targetPoint"/><Array as="points"/><mxPoint as="offset"/></mxGeometry></mxCell><mxCell id="IK2XsmD8G0VPWLhHtN0z-41" value="Подтверждение обновления" style="html=1;verticalAlign=bottom;endArrow=open;dashed=1;endSize=8;curved=0;rounded=0;" parent="1" edge="1"><mxGeometry relative="1" as="geometry"><mxPoint x="500" y="583" as="targetPoint"/><mxPoint x="835" y="583.0000000000002" as="sourcePoint"/><Array as="points"/></mxGeometry></mxCell><mxCell id="IK2XsmD8G0VPWLhHtN0z-21" value="Сообщение о создании класса" style="html=1;verticalAlign=bottom;endArrow=open;dashed=1;endSize=8;curved=0;rounded=0;" parent="1" source="IK2XsmD8G0VPWLhHtN0z-9" edge="1"><mxGeometry relative="1" as="geometry"><mxPoint x="100" y="610" as="targetPoint"/><mxPoint x="350" y="610" as="sourcePoint"/><Array as="points"><mxPoint x="290" y="610"/></Array><mxPoint as="offset"/></mxGeometry></mxCell></root></mxGraphModel>